<svg width="32" height="32" viewBox="0 0 32 32" fill="none" xmlns="http://www.w3.org/2000/svg">
<g id="Monotone/32-chat-double">
<path id="Vector" d="M13.3333 24H7.21895C6.86533 24 6.52619 24.1405 6.27614 24.3905C5.43619 25.2305 4 24.6356 4 23.4477V18.6667C4 15.7212 6.38781 13.3333 9.33333 13.3333H13.3333C16.2788 13.3333 18.6667 15.7212 18.6667 18.6667C18.6667 21.6122 16.2789 24 13.3333 24Z" stroke="#4B3425" stroke-width="2.66667" stroke-linejoin="round"/>
<path id="Vector_2" d="M21.3333 16H22.6667C25.6122 16 28 13.6122 28 10.6667V10.6667C28 7.72115 25.6122 5.33333 22.6667 5.33333H17.3333C14.3878 5.33333 12 7.72115 12 10.6667V10.6667" stroke="#4B3425" stroke-width="2.66667" stroke-linejoin="round"/>
<circle id="Vector_3" cx="9.33333" cy="18.6667" r="1.33333" fill="#4B3425"/>
<circle id="Vector_4" cx="13.3333" cy="18.6667" r="1.33333" fill="#4B3425"/>
</g>
</svg>
