<?xml version="1.0" encoding="UTF-8"?>
<!DOCTYPE svg PUBLIC "-//W3C//DTD SVG 1.1//EN" "http://www.w3.org/Graphics/SVG/1.1/DTD/svg11.dtd">
<svg xmlns="http://www.w3.org/2000/svg" version="1.1" width="512px" height="512px" style="shape-rendering:geometricPrecision; text-rendering:geometricPrecision; image-rendering:optimizeQuality; fill-rule:evenodd; clip-rule:evenodd" xmlns:xlink="http://www.w3.org/1999/xlink">
<g><path style="opacity:0.927" fill="#E8DDD9" d="M 339.5,-0.5 C 345.167,-0.5 350.833,-0.5 356.5,-0.5C 380.411,10.3948 386.578,27.7281 375,51.5C 360.784,67.3778 344.617,69.5445 326.5,58C 313.263,44.8093 311.097,29.976 320,13.5C 325.062,6.7289 331.562,2.06223 339.5,-0.5 Z M 347.5,14.5 C 364.098,18.6954 368.432,28.3621 360.5,43.5C 351.396,51.7373 342.563,51.404 334,42.5C 327.519,27.796 332.019,18.4627 347.5,14.5 Z"/></g>
<g><path style="opacity:0.912" fill="#E8DDD9" d="M 169.5,26.5 C 172.32,26.2475 174.986,26.7475 177.5,28C 179.667,30.1667 181.833,32.3333 184,34.5C 186.537,31.628 189.37,29.128 192.5,27C 200.667,25.8333 204.167,29.3333 203,37.5C 200.872,40.6301 198.372,43.4634 195.5,46C 198.372,48.5366 200.872,51.3699 203,54.5C 204.184,62.6489 200.684,66.1489 192.5,65C 189.37,62.872 186.537,60.372 184,57.5C 181.463,60.372 178.63,62.872 175.5,65C 167.333,66.1667 163.833,62.6667 165,54.5C 167.128,51.3699 169.628,48.5366 172.5,46C 168.388,43.074 165.722,39.2407 164.5,34.5C 164.672,30.8072 166.339,28.1406 169.5,26.5 Z"/></g>
<g><path style="opacity:0.928" fill="#E8DDD9" d="M 262.5,511.5 C 257.833,511.5 253.167,511.5 248.5,511.5C 197.562,483.695 146.562,455.862 95.5,428C 92.4333,424.703 90.2666,420.869 89,416.5C 88.8333,409.667 88.6667,402.833 88.5,396C 88.3659,388.4 88.8659,380.9 90,373.5C 95.4784,368.998 100.145,369.665 104,375.5C 104.333,388.167 104.667,400.833 105,413.5C 105.374,414.416 105.874,415.25 106.5,416C 153.041,441.368 199.707,466.534 246.5,491.5C 247.5,442.838 247.833,394.171 247.5,345.5C 229.426,351.025 211.426,356.858 193.5,363C 189.167,363.667 184.833,363.667 180.5,363C 155.126,349.896 129.96,336.396 105,322.5C 104.667,329.833 104.333,337.167 104,344.5C 101.774,348.861 98.2742,350.361 93.5,349C 91.3333,348.167 89.8333,346.667 89,344.5C 88.6667,334.167 88.3333,323.833 88,313.5C 70.5799,303.873 53.0799,294.373 35.5,285C 26.1667,276.667 26.1667,268.333 35.5,260C 50.8048,254.399 66.1381,248.899 81.5,243.5C 67.4741,226.128 52.9741,209.128 38,192.5C 34.7255,184.141 36.5588,177.307 43.5,172C 67.3271,159.254 90.9938,146.254 114.5,133C 103.625,121.63 100.792,108.463 106,93.5C 114.465,77.0168 127.965,70.1835 146.5,73C 160.806,77.4724 169.806,86.9724 173.5,101.5C 180.221,97.4728 187.221,93.9728 194.5,91C 201.886,89.7975 207.719,92.2975 212,98.5C 225.969,115.636 240.469,132.302 255.5,148.5C 263.824,139.34 271.991,130.007 280,120.5C 277.21,114.44 275.377,107.94 274.5,101C 277.126,80.371 288.793,70.7043 309.5,72C 324.032,75.6929 332.365,85.0263 334.5,100C 349.833,108.333 365.167,116.667 380.5,125C 384.568,132.49 382.568,137.323 374.5,139.5C 359.55,132.358 344.883,124.692 330.5,116.5C 326.465,121.029 321.798,124.862 316.5,128C 308.973,130.533 301.307,131.199 293.5,130C 285.167,139.667 276.833,149.333 268.5,159C 316.269,184.968 364.103,210.801 412,236.5C 427.653,220.009 442.819,203.009 457.5,185.5C 439.66,175.413 421.66,165.579 403.5,156C 399.247,152.58 398.413,148.413 401,143.5C 402.823,141.833 404.99,140.833 407.5,140.5C 428.78,151.14 449.78,162.307 470.5,174C 475.615,181.04 475.781,188.207 471,195.5C 456.93,211.313 443.097,227.313 429.5,243.5C 444.862,248.899 460.195,254.399 475.5,260C 484.833,268.333 484.833,276.667 475.5,285C 457.92,294.373 440.42,303.873 423,313.5C 422.667,347.833 422.333,382.167 422,416.5C 419.997,424.502 415.164,430.002 407.5,433C 359.105,459.195 310.772,485.362 262.5,511.5 Z M 301.5,87.5 C 314.423,88.3551 319.256,95.0217 316,107.5C 308.675,116.446 301.008,116.779 293,108.5C 288.729,98.5635 291.562,91.5635 301.5,87.5 Z M 133.5,88.5 C 147.16,87.3273 155.16,93.494 157.5,107C 156.378,118.789 149.878,125.289 138,126.5C 121.957,122.747 116.623,113.08 122,97.5C 125.045,93.4057 128.878,90.4057 133.5,88.5 Z M 195.5,107.5 C 196.822,107.33 197.989,107.663 199,108.5C 213.126,125.628 227.626,142.462 242.5,159C 194.731,184.968 146.897,210.801 99,236.5C 83.6999,220.195 68.6999,203.528 54,186.5C 53.3123,185.668 53.479,185.002 54.5,184.5C 81.0798,170.294 107.58,155.96 134,141.5C 150.925,142.936 163.425,136.103 171.5,121C 179.724,116.726 187.724,112.226 195.5,107.5 Z M 254.5,170.5 C 302.099,195.633 349.432,221.3 396.5,247.5C 375.487,259.675 354.154,271.341 332.5,282.5C 334.238,241.791 316.238,213.958 278.5,199C 267.84,197.154 264.34,201.32 268,211.5C 297.509,221.006 313.676,241.172 316.5,272C 316.21,279.689 314.543,287.023 311.5,294C 292.673,303.913 274.007,314.079 255.5,324.5C 236.993,314.079 218.327,303.913 199.5,294C 190.114,266.481 196.447,243.147 218.5,224C 225.497,219.002 233.164,215.335 241.5,213C 246.833,208.333 246.833,203.667 241.5,199C 238.5,198.333 235.5,198.333 232.5,199C 194.757,213.97 176.757,241.804 178.5,282.5C 157.167,270.833 135.833,259.167 114.5,247.5C 161.229,221.805 207.895,196.139 254.5,170.5 Z M 93.5,256.5 C 94.8734,256.343 96.2068,256.51 97.5,257C 143.327,281.746 188.994,306.746 234.5,332C 218.65,337.505 202.817,343.005 187,348.5C 140.452,323.475 93.9519,298.308 47.5,273C 62.8935,267.371 78.2269,261.871 93.5,256.5 Z M 413.5,256.5 C 430.456,261.096 447.123,266.596 463.5,273C 417.048,298.308 370.548,323.475 324,348.5C 308.183,343.005 292.35,337.505 276.5,332C 322.229,306.805 367.895,281.639 413.5,256.5 Z M 405.5,322.5 C 406.167,337.496 406.5,352.663 406.5,368C 406.652,383.922 406.152,399.756 405,415.5C 358,441.167 311,466.833 264,492.5C 263.5,443.501 263.333,394.501 263.5,345.5C 281.574,351.025 299.574,356.858 317.5,363C 321.833,363.667 326.167,363.667 330.5,363C 355.849,349.995 380.849,336.495 405.5,322.5 Z"/></g>
<g><path style="opacity:0.911" fill="#E8DDD9" d="M 391.5,75.5 C 394.32,75.2475 396.986,75.7475 399.5,77C 401.667,79.1667 403.833,81.3333 406,83.5C 408.537,80.628 411.37,78.128 414.5,76C 422.667,74.8333 426.167,78.3333 425,86.5C 422.872,89.6301 420.372,92.4634 417.5,95C 420.372,97.5366 422.872,100.37 425,103.5C 426.167,111.667 422.667,115.167 414.5,114C 411.37,111.872 408.537,109.372 406,106.5C 403.463,109.372 400.63,111.872 397.5,114C 389.333,115.167 385.833,111.667 387,103.5C 389.128,100.37 391.628,97.5366 394.5,95C 390.388,92.074 387.722,88.2407 386.5,83.5C 386.672,79.8072 388.339,77.1406 391.5,75.5 Z"/></g>
<g><path style="opacity:0.855" fill="#E8DDD9" d="M 219.5,257.5 C 228.493,256.66 231.993,260.66 230,269.5C 224.186,275.205 219.186,274.538 215,267.5C 214.296,263.092 215.796,259.759 219.5,257.5 Z"/></g>
<g><path style="opacity:0.848" fill="#E8DDD9" d="M 284.5,257.5 C 295.598,257.186 298.598,261.853 293.5,271.5C 283.888,275.058 279.721,271.724 281,261.5C 281.69,259.65 282.856,258.316 284.5,257.5 Z"/></g>
<g><path style="opacity:0.902" fill="#E8DDD9" d="M 248.5,279.5 C 258.727,278.304 267.727,280.97 275.5,287.5C 278.51,292.628 277.51,296.794 272.5,300C 270.167,300.667 267.833,300.667 265.5,300C 258.198,294.087 250.865,294.087 243.5,300C 234.783,300.949 231.283,297.116 233,288.5C 237.333,283.905 242.5,280.905 248.5,279.5 Z"/></g>
<g><path style="opacity:0.892" fill="#E8DDD9" d="M 313.5,422.5 C 321.82,423.311 324.653,427.645 322,435.5C 314.431,440.618 306.431,444.951 298,448.5C 290.755,446.745 288.422,442.412 291,435.5C 298.35,430.747 305.85,426.414 313.5,422.5 Z"/></g>
</svg>
