<svg width="26" height="26" viewBox="0 0 26 26" fill="none" xmlns="http://www.w3.org/2000/svg">
<path d="M8.28592 4.51469L7.57882 5.2218L7.57882 5.2218L8.28592 4.51469ZM4.51469 4.51469L3.80758 3.80758L3.80758 3.80758L4.51469 4.51469ZM4.51469 8.28593L5.2218 7.57882L5.2218 7.57882L4.51469 8.28593ZM4.51475 17.714L5.22185 18.4211L5.22185 18.4211L4.51475 17.714ZM4.51475 21.4853L3.80764 22.1924L3.80764 22.1924L4.51475 21.4853ZM8.28598 21.4853L8.99309 22.1924L8.99309 22.1924L8.28598 21.4853ZM17.714 21.4853L17.0069 22.1924L17.0069 22.1924L17.714 21.4853ZM21.4853 21.4853L22.1924 22.1924L22.1924 22.1924L21.4853 21.4853ZM21.4853 17.714L22.1924 17.0069L22.1924 17.0069L21.4853 17.714ZM21.4853 8.28592L20.7782 7.57882L20.7782 7.57882L21.4853 8.28592ZM21.4853 4.51469L20.7782 5.22179L20.7782 5.22179L21.4853 4.51469ZM17.7141 4.51469L18.4212 5.2218L18.4212 5.22179L17.7141 4.51469ZM11.3339 3.66667C11.3339 2.74619 12.0801 2 13.0006 2V0C10.9755 0 9.3339 1.64162 9.3339 3.66667H11.3339ZM7.57882 5.2218C8.96412 6.6071 11.3339 5.62676 11.3339 3.66667H9.3339C9.3339 3.72515 9.31832 3.75817 9.30281 3.78017C9.2841 3.80672 9.25304 3.83337 9.21074 3.85089C9.16845 3.8684 9.12758 3.87152 9.09548 3.86596C9.06885 3.86135 9.03442 3.84897 8.99303 3.80758L7.57882 5.2218ZM5.22179 5.2218C5.87267 4.57092 6.92794 4.57092 7.57882 5.2218L8.99303 3.80758C7.56111 2.37566 5.2395 2.37566 3.80758 3.80758L5.22179 5.2218ZM5.2218 7.57882C4.57092 6.92795 4.57092 5.87267 5.22179 5.2218L3.80758 3.80758C2.37566 5.23951 2.37566 7.56111 3.80758 8.99304L5.2218 7.57882ZM3.66667 11.3333C5.62613 11.3333 6.60724 8.96427 5.2218 7.57882L3.80758 8.99304C3.84893 9.03438 3.86126 9.06874 3.86586 9.09528C3.8714 9.12728 3.86829 9.16806 3.8508 9.21029C3.8333 9.25252 3.80667 9.28356 3.78014 9.30226C3.75814 9.31776 3.72513 9.33333 3.66667 9.33333V11.3333ZM2 13C2 12.0795 2.74619 11.3333 3.66667 11.3333V9.33333C1.64162 9.33333 0 10.975 0 13H2ZM3.66667 14.6667C2.74619 14.6667 2 13.9205 2 13H0C0 15.025 1.64162 16.6667 3.66667 16.6667V14.6667ZM5.22185 18.4211C6.60739 17.0356 5.62597 14.6667 3.66667 14.6667V16.6667C3.72513 16.6667 3.75815 16.6822 3.78016 16.6978C3.80671 16.7165 3.83334 16.7475 3.85083 16.7897C3.86833 16.832 3.87144 16.8727 3.8659 16.9047C3.8613 16.9312 3.84898 16.9656 3.80764 17.0069L5.22185 18.4211ZM5.22185 20.7781C4.57098 20.1273 4.57098 19.072 5.22185 18.4211L3.80764 17.0069C2.37572 18.4388 2.37572 20.7604 3.80764 22.1924L5.22185 20.7781ZM7.57888 20.7781C6.928 21.429 5.87273 21.429 5.22185 20.7781L3.80764 22.1924C5.23956 23.6243 7.56117 23.6243 8.99309 22.1924L7.57888 20.7781ZM11.3339 22.3333C11.3339 20.3734 8.96428 19.3927 7.57888 20.7781L8.99309 22.1924C9.03448 22.151 9.0689 22.1386 9.09551 22.134C9.12759 22.1284 9.16844 22.1316 9.21073 22.1491C9.25302 22.1666 9.28409 22.1932 9.3028 22.2198C9.31832 22.2418 9.3339 22.2748 9.3339 22.3333H11.3339ZM13.0006 24C12.0801 24 11.3339 23.2538 11.3339 22.3333H9.3339C9.3339 24.3584 10.9755 26 13.0006 26V24ZM14.6672 22.3333C14.6672 23.2538 13.921 24 13.0006 24V26C15.0256 26 16.6672 24.3584 16.6672 22.3333H14.6672ZM18.4211 20.7781C17.0355 19.3925 14.6672 20.3747 14.6672 22.3333H16.6672C16.6672 22.2749 16.6828 22.242 16.6983 22.2199C16.717 22.1934 16.748 22.1668 16.7902 22.1493C16.8324 22.1318 16.8731 22.1287 16.905 22.1343C16.9314 22.1388 16.9656 22.1511 17.0069 22.1924L18.4211 20.7781ZM20.7781 20.7781C20.1273 21.429 19.072 21.429 18.4211 20.7781L17.0069 22.1924C18.4388 23.6243 20.7604 23.6243 22.1924 22.1924L20.7781 20.7781ZM20.7781 18.4211C21.429 19.072 21.429 20.1273 20.7781 20.7781L22.1924 22.1924C23.6243 20.7604 23.6243 18.4388 22.1924 17.0069L20.7781 18.4211ZM22.3333 14.6667C20.374 14.6667 19.3926 17.0356 20.7781 18.4211L22.1924 17.0069C22.151 16.9656 22.1387 16.9312 22.1341 16.9047C22.1286 16.8727 22.1317 16.832 22.1492 16.7897C22.1667 16.7475 22.1933 16.7165 22.2198 16.6978C22.2418 16.6822 22.2749 16.6667 22.3333 16.6667V14.6667ZM24 13C24 13.9205 23.2538 14.6667 22.3333 14.6667V16.6667C24.3584 16.6667 26 15.025 26 13H24ZM22.3333 11.3333C23.2538 11.3333 24 12.0795 24 13H26C26 10.975 24.3584 9.33333 22.3333 9.33333V11.3333ZM20.7782 7.57882C19.3928 8.96426 20.3739 11.3333 22.3333 11.3333V9.33333C22.2749 9.33333 22.2419 9.31776 22.2199 9.30226C22.1933 9.28356 22.1667 9.25252 22.1492 9.21029C22.1317 9.16806 22.1286 9.12727 22.1341 9.09528C22.1387 9.06874 22.1511 9.03438 22.1924 8.99303L20.7782 7.57882ZM20.7782 5.22179C21.4291 5.87267 21.4291 6.92794 20.7782 7.57882L22.1924 8.99303C23.6243 7.56111 23.6243 5.2395 22.1924 3.80758L20.7782 5.22179ZM18.4212 5.22179C19.0721 4.57092 20.1273 4.57092 20.7782 5.22179L22.1924 3.80758C20.7605 2.37566 18.4389 2.37566 17.007 3.80758L18.4212 5.22179ZM14.6672 3.66667C14.6672 5.62543 17.0356 6.60734 18.4212 5.2218L17.007 3.80758C16.9657 3.84886 16.9314 3.86114 16.905 3.86572C16.8731 3.87124 16.8324 3.86814 16.7902 3.85066C16.748 3.83318 16.717 3.80657 16.6983 3.78004C16.6828 3.75805 16.6672 3.72507 16.6672 3.66667H14.6672ZM13.0006 2C13.921 2 14.6672 2.74619 14.6672 3.66667H16.6672C16.6672 1.64162 15.0256 0 13.0006 0V2ZM16 13C16 14.6569 14.6569 16 13 16V18C15.7614 18 18 15.7614 18 13H16ZM13 10C14.6569 10 16 11.3431 16 13H18C18 10.2386 15.7614 8 13 8V10ZM10 13C10 11.3431 11.3431 10 13 10V8C10.2386 8 8 10.2386 8 13H10ZM13 16C11.3431 16 10 14.6569 10 13H8C8 15.7614 10.2386 18 13 18V16Z" fill="#4B3425"/>
</svg>
