<svg width="24" height="24" viewBox="0 0 24 24" fill="none" xmlns="http://www.w3.org/2000/svg">
<path d="M10.1839 4.93733C10.8987 3.38759 13.1013 3.38759 13.8161 4.93733L14.6346 6.71181C14.9259 7.34342 15.5245 7.77831 16.2152 7.8602L18.1558 8.09029C19.8506 8.29123 20.5312 10.386 19.2782 11.5447L17.8435 12.8715C17.3328 13.3438 17.1042 14.0474 17.2398 14.7297L17.6206 16.6463C17.9532 18.3203 16.1713 19.6149 14.6821 18.7813L12.9769 17.8268C12.3699 17.4871 11.6301 17.4871 11.0231 17.8268L9.31794 18.7813C7.82871 19.6149 6.04679 18.3203 6.3794 16.6463L6.76024 14.7297C6.8958 14.0474 6.66717 13.3438 6.15649 12.8715L4.72179 11.5447C3.46879 10.386 4.14942 8.29123 5.84421 8.09029L7.78477 7.8602C8.47549 7.77831 9.07406 7.34342 9.3654 6.71181L10.1839 4.93733Z" stroke="#4B3425" stroke-width="2" stroke-linejoin="round"/>
</svg>
